<?xml version="1.0" standalone="no"?>
<!DOCTYPE svg PUBLIC "-//W3C//DTD SVG 20010904//EN"
 "http://www.w3.org/TR/2001/REC-SVG-20010904/DTD/svg10.dtd">
<svg version="1.0" xmlns="http://www.w3.org/2000/svg"
 width="16" height="16" viewBox="0 0 512.000000 512.000000"
 preserveAspectRatio="xMidYMid meet">

<g transform="translate(0.000000,512.000000) scale(0.100000,-0.100000)"
 stroke="violet" stroke-width="50" fill="#aaaaaa00">
<path d="M624 4570 c-67 -21 -102 -96 -84 -187 21 -111 92 -262 159 -336 49
-54 103 -79 184 -85 l69 -5 -6 -31 c-3 -17 -20 -60 -38 -96 -48 -99 -158 -201
-379 -353 -292 -200 -389 -292 -465 -439 -102 -201 -81 -411 57 -562 l49 -54
0 -302 0 -302 -64 -107 c-78 -130 -90 -166 -83 -243 5 -54 23 -90 217 -436
117 -207 223 -391 236 -408 13 -18 45 -43 71 -55 44 -22 63 -24 218 -27 187
-3 217 4 258 60 39 53 31 80 -141 443 l-161 340 87 21 c48 12 116 33 151 48
67 27 200 106 220 130 10 12 26 8 104 -26 419 -182 844 -277 1244 -278 l151 0
7 -43 c3 -23 10 -65 16 -92 l10 -51 307 -255 c169 -141 323 -264 342 -274 27
-15 64 -20 162 -23 171 -6 213 1 255 43 28 28 33 40 33 83 0 59 22 28 -271
372 l-226 265 -7 67 -6 66 65 37 c133 74 281 213 358 336 l28 47 117 4 c94 4
125 9 158 26 67 34 281 209 288 234 3 13 6 49 6 81 l0 57 150 0 c147 0 152 1
175 25 14 13 25 36 25 50 0 14 -11 37 -25 50 -23 24 -28 25 -175 25 l-150 0 0
114 0 114 163 4 c143 4 167 7 209 27 110 53 156 132 183 311 20 130 30 150 71
132 l26 -12 -4 -203 c-3 -195 -4 -204 -30 -260 -15 -32 -43 -77 -63 -101 -21
-26 -35 -54 -35 -70 0 -35 41 -76 76 -76 61 0 170 166 193 294 17 93 14 429
-4 471 -47 113 -210 150 -298 67 -44 -41 -54 -69 -77 -200 -24 -145 -26 -149
-58 -185 -24 -25 -98 -55 -109 -43 -7 6 5 37 54 146 34 77 38 93 38 170 0 98
-9 119 -111 267 -35 51 -64 97 -64 101 0 4 16 14 37 21 57 21 119 85 140 144
26 75 23 232 -6 367 -28 127 -42 156 -85 177 -61 29 -88 15 -246 -127 -79 -72
-146 -130 -149 -130 -3 1 -31 37 -61 81 -57 85 -88 109 -140 109 -38 0 -62
-12 -122 -62 l-47 -39 -41 81 c-44 87 -81 120 -135 120 -54 0 -91 -33 -135
-120 l-41 -81 -40 33 c-67 54 -92 68 -129 68 -53 0 -91 -29 -145 -113 -28 -42
-53 -77 -56 -77 -3 0 -70 58 -150 130 -153 138 -182 154 -240 130 -17 -7 -37
-23 -46 -36 -19 -30 -51 -153 -59 -232 -4 -34 -10 -64 -14 -67 -3 -2 -35 5
-69 16 -125 38 -259 35 -386 -10 -68 -25 -1157 -617 -1172 -638 -7 -9 -13 -34
-13 -54 0 -42 27 -69 69 -69 13 0 274 136 579 301 306 166 580 310 609 320 78
28 192 25 290 -6 97 -31 97 -31 113 -79 17 -53 69 -107 128 -135 l49 -23 -78
-116 c-127 -190 -134 -259 -45 -460 l45 -102 -27 0 c-31 0 -76 27 -98 58 -8
12 -25 81 -38 155 -13 73 -31 147 -40 165 -51 98 -206 125 -292 50 -67 -59
-69 -69 -69 -308 1 -177 4 -226 19 -275 54 -181 188 -316 366 -370 38 -11 111
-18 238 -22 l182 -6 0 -67 c0 -82 -3 -78 152 -199 131 -102 172 -121 266 -121
l66 0 -29 -30 c-45 -47 -160 -123 -272 -179 -82 -41 -104 -56 -109 -77 -4 -14
-3 -87 1 -161 l7 -136 230 -271 c127 -149 238 -279 246 -288 14 -17 12 -18
-24 -18 -36 0 -60 17 -326 239 -222 186 -287 246 -292 268 -3 15 -28 163 -56
328 -28 165 -53 310 -55 323 -14 58 -80 80 -129 41 -32 -25 -33 -45 -7 -192
10 -59 15 -107 12 -107 -3 0 -80 5 -171 11 -318 20 -655 94 -958 211 l-103 40
8 42 c4 22 8 106 8 186 -1 120 -5 160 -24 230 -32 114 -118 324 -142 346 -11
10 -35 18 -56 18 -44 0 -73 -32 -73 -80 0 -23 -5 -34 -14 -34 -8 0 -26 -14
-41 -32 -33 -39 -31 -71 9 -203 34 -110 46 -281 26 -366 -49 -208 -217 -339
-503 -394 -44 -8 -99 -15 -124 -15 -56 0 -83 -14 -83 -43 0 -13 81 -199 180
-414 99 -215 180 -394 180 -397 0 -12 -106 -6 -123 7 -17 12 -384 656 -419
735 -25 54 -20 67 69 215 l68 112 5 401 5 400 37 75 c50 101 108 154 256 234
125 69 142 84 142 130 0 28 -12 45 -48 64 -30 16 -45 10 -184 -66 -176 -96
-259 -180 -319 -322 l-28 -66 -18 40 c-26 59 -23 192 6 267 49 126 147 224
395 395 211 145 286 204 358 282 114 124 184 291 162 392 -7 35 -5 56 9 99 46
135 -13 259 -173 365 -132 87 -239 124 -306 105z m3122 -726 c47 -20 71 -11
147 52 36 30 67 54 70 54 10 0 519 -751 534 -788 21 -50 12 -89 -53 -236 -56
-125 -57 -126 -90 -126 -29 0 -35 5 -52 43 -14 31 -55 76 -146 158 -70 63
-138 118 -151 123 -54 21 -115 -31 -102 -86 4 -15 56 -70 132 -137 l125 -113
0 -199 c0 -109 -2 -199 -4 -199 -2 0 -38 45 -80 99 -146 191 -169 201 -457
201 -283 0 -297 -7 -465 -225 l-69 -89 -3 184 c-1 102 0 195 3 206 2 12 61 72
129 134 72 65 127 122 130 137 14 53 -40 104 -95 90 -40 -11 -285 -240 -305
-286 -15 -36 -22 -41 -49 -41 -31 0 -34 3 -90 128 -65 144 -74 182 -52 235 16
38 524 787 534 787 2 0 34 -24 70 -54 76 -63 100 -72 148 -52 29 12 42 29 77
101 l43 85 43 -86 c35 -71 49 -88 78 -100z m-1396 -746 c5 -13 16 -70 25 -128
21 -133 59 -218 118 -261 78 -57 100 -62 275 -67 l162 -4 0 -115 0 -115 -182
4 c-181 3 -184 3 -248 34 -83 39 -145 101 -184 184 -31 65 -31 65 -34 263 -4
207 0 227 39 227 11 0 24 -10 29 -22z m1495 -581 c25 -16 274 -328 283 -356 4
-12 -151 -134 -180 -143 -13 -3 -158 -6 -323 -6 -165 0 -310 3 -323 6 -35 11
-184 133 -178 147 4 11 232 312 256 338 26 28 90 37 260 34 149 -2 179 -5 205
-20z"/>
<path d="M3050 3358 c-15 -17 -20 -35 -20 -79 0 -72 6 -86 41 -105 35 -18 74
-10 94 19 24 34 20 142 -5 167 -27 27 -83 27 -110 -2z"/>
<path d="M4090 3360 c-25 -25 -29 -133 -5 -167 20 -29 59 -37 94 -19 36 19 41
33 41 105 0 47 -4 61 -23 79 -30 28 -80 29 -107 2z"/>
<path d="M3385 2315 c-36 -36 -32 -70 14 -116 46 -47 73 -49 112 -10 34 35 36
52 8 97 -37 60 -92 72 -134 29z"/>
<path d="M3750 2309 c-37 -39 -45 -64 -30 -99 13 -31 58 -55 88 -46 37 12 76
64 76 102 0 73 -82 100 -134 43z"/>
</g>
</svg>
